<svg width="12" height="14" viewBox="0 0 12 14" fill="none" xmlns="http://www.w3.org/2000/svg">
<path d="M5.83333 4.16682C4.91667 4.16682 4.16667 4.91682 4.16667 5.83349C4.16667 6.75015 4.91667 7.50015 5.83333 7.50015C6.75 7.50015 7.5 6.75015 7.5 5.83349C7.5 4.91682 6.75 4.16682 5.83333 4.16682ZM5.83333 0.000152588C8.55833 0.000152588 11.6667 2.05015 11.6667 5.95848C11.6667 8.44182 9.89167 11.0585 6.34167 13.7835C6.04167 14.0168 5.625 14.0168 5.325 13.7835C1.775 11.0502 0 8.44182 0 5.95848C0 2.05015 3.10833 0.000152588 5.83333 0.000152588Z" fill="#9D99E4"/>
</svg>
